<?xml version="1.0" encoding="UTF-8"?>
<svg version="1.1" xmlns="http://www.w3.org/2000/svg" width="1563" height="1563">
<path d="M0 0 C1.94712891 0.32484375 1.94712891 0.32484375 3.93359375 0.65625 C20.11782145 3.58299947 35.74492919 8.94771647 51 15 C52.0209375 15.39832031 53.041875 15.79664063 54.09375 16.20703125 C62.64363476 19.64307365 70.81090845 23.79648001 79 28 C79.96260742 28.49097168 80.92521484 28.98194336 81.91699219 29.48779297 C94.5270114 35.92624193 107.05818592 42.37970379 119 50 C119.79277344 50.50563477 120.58554688 51.01126953 121.40234375 51.53222656 C136.599718 61.26197406 151.23534332 71.57615466 165.72802734 82.32128906 C167.77707969 83.83528905 169.83369966 85.33803577 171.89453125 86.8359375 C172.99226243 87.64052278 174.08992483 88.44520191 175.1875 89.25 C176.12980469 89.93578125 177.07210937 90.6215625 178.04296875 91.328125 C178.68878906 91.87984375 179.33460938 92.4315625 180 93 C180 93.66 180 94.32 180 95 C180.66 95 181.32 95 182 95 C182 95.66 182 96.32 182 97 C182.57234375 97.268125 183.1446875 97.53625 183.734375 97.8125 C186.07884634 99.04132636 188.12404938 100.42522176 190.25 102 C191.30960938 102.7734375 191.30960938 102.7734375 192.390625 103.5625 C192.92171875 104.036875 193.4528125 104.51125 194 105 C194 105.66 194 106.32 194 107 C194.57234375 107.24363281 195.1446875 107.48726563 195.734375 107.73828125 C198.40433538 109.22517298 200.13829007 110.98083908 202.25 113.1875 C205.0587808 116.06501117 207.87666256 118.82989001 210.9375 121.4375 C215.86749691 125.68028522 220.66816511 130.14443917 225 135 C225 135.66 225 136.32 225 137 C225.66 137 226.32 137 227 137 C227 137.66 227 138.32 227 139 C227.66 139 228.32 139 229 139 C234 144.47619048 234 144.47619048 234 147 C234.66 147 235.32 147 236 147 C236 147.66 236 148.32 236 149 C236.66 149 237.32 149 238 149 C238 149.66 238 150.32 238 151 C238.66 151 239.32 151 240 151 C244 155.47058824 244 155.47058824 244 158 C244.66 158 245.32 158 246 158 C247.95981288 160.25407908 249.80400764 162.5132561 251.625 164.875 C252.3984375 165.85146484 252.3984375 165.85146484 253.1875 166.84765625 C257 171.73935599 257 171.73935599 257 174 C257.66 174 258.32 174 259 174 C259.66 175.65 260.32 177.3 261 179 C261.66 179 262.32 179 263 179 C267 184.41176471 267 184.41176471 267 187 C267.66 187 268.32 187 269 187 C270.55297852 188.98095703 270.55297852 188.98095703 272.37890625 191.7578125 C273.04841309 192.76900146 273.71791992 193.78019043 274.40771484 194.82202148 C275.11879395 195.91200439 275.82987305 197.0019873 276.5625 198.125 C277.295908 199.23997975 278.02979587 200.354644 278.76416016 201.46899414 C280.84967464 204.64153935 282.92563838 207.82015606 285 211 C285.90195808 212.37134749 286.80422805 213.74248998 287.70703125 215.11328125 C297.36976002 229.92946537 305.91987334 245.27532393 314 261 C314.36367676 261.70012207 314.72735352 262.40024414 315.10205078 263.12158203 C319.68309864 271.94755103 323.70949359 280.88203731 327.4140625 290.109375 C328.70261323 293.30842927 330.09503845 296.44063912 331.5625 299.5625 C352.03278216 344.0920099 362.56306203 394.5867029 367.67456055 443.07006836 C367.925182 445.32641352 368.20767223 447.57923504 368.50366211 449.83007812 C370.40224522 464.95716076 370.15899773 480.33645734 370.13037109 495.55151367 C370.12501258 498.92957048 370.13035107 502.30749407 370.13671875 505.68554688 C370.14411555 524.30897649 369.54744537 542.75246072 367.3125 561.25 C367.22763336 561.96312347 367.14276672 562.67624695 367.05532837 563.41098022 C359.97733775 622.22650152 342.14609048 678.20112377 317.0625 731.75 C316.7214624 732.48154297 316.3804248 733.21308594 316.02905273 733.96679688 C314.40215412 737.37165469 312.66739291 740.59390205 310.62109375 743.765625 C308.53738075 747.00978626 306.79925798 750.33317118 305.10546875 753.796875 C302.14537777 759.81720687 298.82638429 765.53858275 295.3125 771.25 C294.7045459 772.24362549 294.0965918 773.23725098 293.47021484 774.26098633 C288.63613549 782.10070104 283.52823802 789.70557103 278.22412109 797.23193359 C275.5690752 801.06676453 273.07155502 805.00871232 270.55859375 808.9375 C270.04425781 809.618125 269.52992188 810.29875 269 811 C268.34 811 267.68 811 267 811 C266.79375 811.66 266.5875 812.32 266.375 813 C264.50875748 817.07180186 262.02438473 820.68796998 259 824 C258.34 824 257.68 824 257 824 C256.73445313 824.57492187 256.46890625 825.14984375 256.1953125 825.7421875 C254.00949759 829.870949 250.90087352 833.35560162 248 837 C247.28457031 837.92683594 246.56914063 838.85367188 245.83203125 839.80859375 C245.12433594 840.71738281 244.41664063 841.62617187 243.6875 842.5625 C242.70330078 843.83287109 242.70330078 843.83287109 241.69921875 845.12890625 C241.13847656 845.74636719 240.57773438 846.36382813 240 847 C239.34 847 238.68 847 238 847 C238 847.66 238 848.32 238 849 C237.34 849 236.68 849 236 849 C235.73155273 849.58990723 235.46310547 850.17981445 235.18652344 850.78759766 C233.9922503 853.01445016 232.74480965 854.56651336 231.015625 856.3984375 C230.41693604 857.03595947 229.81824707 857.67348145 229.20141602 858.33032227 C228.55744873 859.00506592 227.91348145 859.67980957 227.25 860.375 C226.25214478 861.42868774 226.25214478 861.42868774 225.23413086 862.50366211 C200.04436384 888.98521205 200.04436384 888.98521205 194 891 C194 891.66 194 892.32 194 893 C193.34 893 192.68 893 192 893 C192 893.66 192 894.32 192 895 C190.43059199 896.43812673 188.79125965 897.8003005 187.125 899.125 C186.12855469 899.92035156 185.13210938 900.71570312 184.10546875 901.53515625 C183.08066406 902.34855469 182.05585937 903.16195312 181 904 C180.04738281 904.78246094 179.09476563 905.56492187 178.11328125 906.37109375 C177.23027344 907.09425781 176.34726563 907.81742188 175.4375 908.5625 C174.63183594 909.22378906 173.82617188 909.88507812 172.99609375 910.56640625 C171 912 171 912 169 912 C169 912.66 169 913.32 169 914 C167.73193359 915.19482422 167.73193359 915.19482422 165.8984375 916.5546875 C165.19517334 917.07740234 164.49190918 917.60011719 163.76733398 918.13867188 C162.97786377 918.71166016 162.18839355 919.28464844 161.375 919.875 C160.55265869 920.47634766 159.73031738 921.07769531 158.88305664 921.69726562 C150.86581124 927.49213089 142.66616333 933.01194609 134.4375 938.5 C133.7963324 938.92810974 133.15516479 939.35621948 132.49456787 939.79730225 C111.18677455 954 111.18677455 954 107 954 C107 954.66 107 955.32 107 956 C104.46122641 957.39342251 101.91964733 958.78138423 99.375 960.1640625 C97.10016691 961.40152957 94.82939718 962.64649201 92.5625 963.8984375 C84.35735783 968.39282402 75.99703972 972.3233148 67.421875 976.05859375 C62.23476662 978.31978544 57.12478254 980.73289333 52.015625 983.1640625 C41.35756837 988.0928357 30.67119993 992.30537595 19.5 995.9375 C18.17933893 996.37044981 16.85878397 996.80372341 15.53833008 997.23730469 C12.91043609 998.09879673 10.28119764 998.95600037 7.65087891 999.81005859 C4.44334327 1000.85549986 1.24221877 1001.91783275 -1.95703125 1002.98828125 C-33.24055962 1013.35618314 -66.23011018 1019.68153014 -99 1023 C-100.26602051 1023.13535156 -101.53204102 1023.27070312 -102.83642578 1023.41015625 C-140.31378092 1027.37808916 -177.54262486 1026.90035888 -215 1023 C-216.12841309 1022.88785156 -217.25682617 1022.77570313 -218.41943359 1022.66015625 C-268.6770791 1017.56918325 -319.96313467 1003.86176145 -366 983 C-367.66482422 982.25363281 -367.66482422 982.25363281 -369.36328125 981.4921875 C-372.5889038 980.02197847 -375.79428471 978.51309761 -379 977 C-380.46191945 976.32612798 -381.92418348 975.65300318 -383.38671875 974.98046875 C-394.55858248 969.81048602 -405.32199046 964.11850399 -416 958 C-417.64317728 957.06761689 -419.28640747 956.13532701 -420.9296875 955.203125 C-429.85392799 950.11560523 -438.54150626 944.83769677 -447 939 C-448.49790584 937.98840947 -449.99667638 936.97809873 -451.49609375 935.96875 C-460.04389155 930.19540215 -468.42593265 924.30767416 -476.53125 917.92578125 C-479.03962039 915.91985723 -479.03962039 915.91985723 -482 914 C-482 913.34 -482 912.68 -482 912 C-482.72574219 911.7421875 -483.45148438 911.484375 -484.19921875 911.21875 C-487.12047667 909.94757501 -489.30872649 908.45983598 -491.8125 906.5 C-492.60269531 905.8915625 -493.39289063 905.283125 -494.20703125 904.65625 C-494.79871094 904.1096875 -495.39039063 903.563125 -496 903 C-496 902.34 -496 901.68 -496 901 C-496.598125 900.71125 -497.19625 900.4225 -497.8125 900.125 C-500 899 -500 899 -503 897 C-503 896.34 -503 895.68 -503 895 C-503.66 895 -504.32 895 -505 895 C-505 894.34 -505 893.68 -505 893 C-505.52335938 892.79375 -506.04671875 892.5875 -506.5859375 892.375 C-510.05985077 890.39633095 -512.73596582 887.74391592 -515.625 885 C-516.2651001 884.39639648 -516.9052002 883.79279297 -517.56469727 883.17089844 C-523.08717711 877.93052159 -528.52802338 872.6067275 -533.9375 867.25 C-534.73687988 866.46367188 -535.53625977 865.67734375 -536.35986328 864.8671875 C-537.46370361 863.76503906 -537.46370361 863.76503906 -538.58984375 862.640625 C-539.24847412 861.98610352 -539.90710449 861.33158203 -540.58569336 860.65722656 C-542 859 -542 859 -542 857 C-542.66 857 -543.32 857 -544 857 C-544 856.34 -544 855.68 -544 855 C-544.66 855 -545.32 855 -546 855 C-551 849.52380952 -551 849.52380952 -551 847 C-551.66 847 -552.32 847 -553 847 C-553 846.34 -553 845.68 -553 845 C-553.66 845 -554.32 845 -555 845 C-556.48828125 843.375 -556.48828125 843.375 -558.3125 841 C-559.02277344 840.08734375 -559.73304688 839.1746875 -560.46484375 838.234375 C-561.06401611 837.46383789 -561.06401611 837.46383789 -561.67529297 836.67773438 C-563.11561004 834.8535805 -564.58684841 833.05808717 -566.06640625 831.265625 C-571.49832104 824.68153497 -576.82745051 818.05645415 -581.8125 811.125 C-582.23901855 810.5362207 -582.66553711 809.94744141 -583.10498047 809.34082031 C-586 805.25016378 -586 805.25016378 -586 803 C-586.66 803 -587.32 803 -588 803 C-589.26953125 801.296875 -589.26953125 801.296875 -590.8125 798.75 C-593.7150212 794.04402944 -596.69302875 789.40162807 -599.73242188 784.78271484 C-604.79945452 777.07043578 -609.69148844 769.3351442 -614.1796875 761.26953125 C-615.40761032 759.06401322 -616.66364109 756.87394232 -617.9453125 754.69921875 C-622.74638516 746.53739523 -626.86261401 738.1655862 -630.84765625 729.578125 C-632.63084232 725.74565268 -634.54096985 721.99613617 -636.5 718.25 C-640.9491669 709.42359269 -644.36454718 700.18287446 -647.87255859 690.95166016 C-648.95761395 688.11096737 -650.06308941 685.2791835 -651.17578125 682.44921875 C-655.09748077 672.42152428 -658.55488099 662.40122878 -661.42773438 652.02539062 C-661.99332142 650.02363715 -662.5915403 648.0350169 -663.203125 646.046875 C-671.68686461 618.38118778 -676.81265996 590.06919456 -680.25 561.375 C-680.33308411 560.69204865 -680.41616821 560.00909729 -680.50177002 559.30545044 C-682.73776144 540.70693569 -683.16559383 522.16936821 -683.13037109 503.44848633 C-683.12501258 500.07042952 -683.13035107 496.69250593 -683.13671875 493.31445312 C-683.14416558 474.77769689 -682.57268102 456.46519221 -680.25 438.0625 C-680.16352203 437.36821899 -680.07704407 436.67393799 -679.98794556 435.95861816 C-673.49694366 384.09224736 -661.35657543 328.55156029 -636.5078125 282.03515625 C-635.36362374 279.73195764 -634.45432299 277.58857203 -633.59375 275.18359375 C-631.91308235 270.57133806 -629.69308939 266.31981088 -627.375 262 C-626.93696045 261.17693359 -626.4989209 260.35386719 -626.04760742 259.50585938 C-620.21836614 248.6008233 -614.28706497 237.80828413 -607.54296875 227.4375 C-606.11736829 225.18541219 -604.82393746 222.9093604 -603.5625 220.5625 C-598.01988932 210.41609217 -591.05205245 201.13320327 -584 192 C-582.94039062 190.59041016 -582.94039062 190.59041016 -581.859375 189.15234375 C-581.24578125 188.44207031 -580.6321875 187.73179687 -580 187 C-579.34 187 -578.68 187 -578 187 C-578 186.34 -578 185.68 -578 185 C-577.34 185 -576.68 185 -576 185 C-575.76023437 184.42378906 -575.52046875 183.84757813 -575.2734375 183.25390625 C-573.74716307 180.55249415 -571.97152115 178.96049747 -569.625 176.9375 C-568.85414063 176.26589844 -568.08328125 175.59429687 -567.2890625 174.90234375 C-561.39014374 170 -561.39014374 170 -559 170 C-559 169.34 -559 168.68 -559 168 C-537.74184058 153.11333374 -513.40003242 145.97998779 -487.5625 150.125 C-473.40667406 152.72267688 -461.69514975 158.80246513 -450 167 C-449.20980469 167.54269531 -448.41960937 168.08539063 -447.60546875 168.64453125 C-447.07566406 169.09183594 -446.54585937 169.53914062 -446 170 C-446 170.66 -446 171.32 -446 172 C-445.34 172 -444.68 172 -444 172 C-444 172.66 -444 173.32 -444 174 C-443.42894531 174.2475 -442.85789062 174.495 -442.26953125 174.75 C-435.05564531 178.72322461 -430.03063292 186.08545761 -425.5546875 192.7890625 C-423.96264058 195.18758483 -423.96264058 195.18758483 -421.375 197.625 C-416.71379494 202.28620506 -413.87354454 208.12229527 -411 214 C-410.505 214.804375 -410.01 215.60875 -409.5 216.4375 C-408.04332133 218.92599273 -406.97951369 221.45233784 -405.8828125 224.11328125 C-404.90684003 226.19909853 -403.74930356 228.06619778 -402.5 230 C-400.22776002 233.53081602 -398.56289173 237.09277067 -397 241 C-396.484375 242.175625 -395.96875 243.35125 -395.4375 244.5625 C-394 248 -394 248 -393 251.0625 C-392.05804443 254.05979372 -392.05804443 254.05979372 -390.5 256.9375 C-388.87694599 260.25123526 -387.82915572 263.40699188 -387 267 C-387.33 267.66 -387.66 268.32 -388 269 C-387.34 269 -386.68 269 -386 269 C-382.76982422 277.27859516 -379.74703949 285.26480257 -378 294 C-377.35845981 295.34560336 -376.68955269 296.67835734 -376 298 C-373.62149517 303.54674759 -371.35023573 309.10806227 -370 315 C-370.33 315.66 -370.66 316.32 -371 317 C-370.34 317 -369.68 317 -369 317 C-366.91190033 321.98176064 -364.96273249 326.92058162 -363.5 332.125 C-362.36765791 336.07891582 -360.8307761 339.50584007 -358.90625 343.12890625 C-357.53359226 345.96297115 -356.84091487 348.97270646 -356 352 C-355.01577854 354.00781177 -354.01765927 356.00892752 -353 358 C-352.65657551 359.33076989 -352.32380126 360.66431979 -352 362 C-350.63507075 365.35028089 -349.19891638 368.61128201 -347.55078125 371.83203125 C-346.02584866 374.94719582 -344.77246146 378.06345595 -343.5625 381.3125 C-340.98173963 388.11210816 -338.1859578 394.71219508 -334.875 401.1875 C-333.73042061 403.43688574 -332.84959237 405.46125006 -332.0625 407.875 C-330.77676051 411.65658675 -328.98598869 415.05360097 -327.1640625 418.6015625 C-325.84034836 421.32894666 -324.95743404 424.12769788 -324 427 C-323.30970703 427.90492188 -323.30970703 427.90492188 -322.60546875 428.828125 C-319.03545968 433.65762633 -316.76327517 439.62037741 -314.9375 445.3125 C-313.78424414 448.61850015 -311.99358839 451.13421669 -310 454 C-309.31138883 455.32213345 -308.65030255 456.65860937 -308 458 C-307.38797166 459.22718815 -306.77453819 460.45367596 -306.16015625 461.6796875 C-304.06640625 465.8671875 -304.06640625 465.8671875 -301.97265625 470.0546875 C-301.63588867 470.72765869 -301.29912109 471.40062988 -300.95214844 472.09399414 C-300.11716629 473.76545711 -299.28672636 475.43918756 -298.45703125 477.11328125 C-292.54835959 488.81973796 -286.09192118 500.24952178 -279.35546875 511.49609375 C-278 514 -278 514 -278 516 C-277.34 516.66 -276.68 517.32 -276 518 C-263 535.9504644 -263 535.9504644 -263 541 C-262.34 541 -261.68 541 -261 541 C-260.87625 541.639375 -260.7525 542.27875 -260.625 542.9375 C-260.41875 543.618125 -260.2125 544.29875 -260 545 C-259.34 545.33 -258.68 545.66 -258 546 C-257.33333333 547.66666667 -256.66666667 549.33333333 -256 551 C-255.34 551.33 -254.68 551.66 -254 552 C-252.74470385 553.61030071 -251.54281383 555.26267235 -250.375 556.9375 C-249.42753906 558.28134766 -249.42753906 558.28134766 -248.4609375 559.65234375 C-247 562 -247 562 -247 564 C-246.01 564.33 -245.02 564.66 -244 565 C-242.98234073 566.99107248 -241.98422146 568.99218823 -241 571 C-239.70896357 572.3743291 -238.3743291 573.70896357 -237 575 C-233 579.66666667 -233 579.66666667 -233 582 C-232.34 582.33 -231.68 582.66 -231 583 C-229 585 -229 585 -229 588 C-227.68 588.66 -226.36 589.32 -225 590 C-225 590.66 -225 591.32 -225 592 C-224.38125 592.2475 -223.7625 592.495 -223.125 592.75 C-221 594 -221 594 -220.09765625 595.875 C-218.82641073 598.33605895 -217.45745121 599.51381159 -215.3125 601.25 C-211.66425084 604.31558867 -208.635176 607.60120247 -205.640625 611.30078125 C-203.8740623 613.13043547 -202.28149489 613.92339097 -200 615 C-198.33333333 616.66666667 -196.66666667 618.33333333 -195 620 C-193.03501678 621.38442 -191.02951535 622.71203834 -189 624 C-188.31808594 624.47566406 -187.63617187 624.95132813 -186.93359375 625.44140625 C-182.46504093 628.54219334 -178.06840271 631.05355953 -173.04296875 633.140625 C-171 634 -171 634 -169.0625 635.03125 C-161.94283204 638.37533646 -154.34204779 638.61696753 -147 636 C-145.6536137 635.36010458 -144.32227476 634.68833981 -143 634 C-141.906875 633.46503906 -140.81375 632.93007813 -139.6875 632.37890625 C-138.45828682 631.77353195 -137.22912131 631.16806081 -136 630.5625 C-135.38382813 630.26279297 -134.76765625 629.96308594 -134.1328125 629.65429688 C-130.82345506 628.01737222 -127.93539915 626.22193408 -125 624 C-124.34 624 -123.68 624 -123 624 C-123 623.34 -123 622.68 -123 622 C-120 620 -120 620 -117 620 C-116.7525 619.38125 -116.505 618.7625 -116.25 618.125 C-114.79371361 615.64931313 -113.62187494 615.04874998 -111 614 C-111 613.34 -111 612.68 -111 612 C-110.29875 611.608125 -109.5975 611.21625 -108.875 610.8125 C-105.69107607 608.80524361 -103.77884349 606.61392603 -101.4296875 603.71875 C-100 602 -100 602 -98.3828125 600.40625 C-96.88570226 599.02827515 -96.88570226 599.02827515 -96 597 C-95.34 597 -94.68 597 -94 597 C-94 596.34 -94 595.68 -94 595 C-93.34 595 -92.68 595 -92 595 C-91.7525 594.38125 -91.505 593.7625 -91.25 593.125 C-90 591 -90 591 -87.9375 590 C-85.78719721 589.1704178 -85.78719721 589.1704178 -85.25 586.875 C-85.1675 586.25625 -85.085 585.6375 -85 585 C-84.34 585 -83.68 585 -83 585 C-82.7525 584.46375 -82.505 583.9275 -82.25 583.375 C-80.69347463 580.4176018 -78.96564327 577.70275949 -77 575 C-76.34 575 -75.68 575 -75 575 C-75 574.34 -75 573.68 -75 573 C-74.34 573 -73.68 573 -73 573 C-73 572.01 -73 571.02 -73 570 C-72.34 570 -71.68 570 -71 570 C-70.67 569.01 -70.34 568.02 -70 567 C-67.77681335 563.26406651 -65.37539252 559.64065261 -63 556 C-62.43023438 555.12472656 -61.86046875 554.24945312 -61.2734375 553.34765625 C-57.28228673 547.28228673 -57.28228673 547.28228673 -55 545 C-54.09282434 543.4770445 -53.22072673 541.93291765 -52.375 540.375 C-51.92898438 539.55773437 -51.48296875 538.74046875 -51.0234375 537.8984375 C-50.68570313 537.27195312 -50.34796875 536.64546875 -50 536 C-49.34 536 -48.68 536 -48 536 C-47.89558594 535.44570313 -47.79117188 534.89140625 -47.68359375 534.3203125 C-46.86013434 531.525256 -45.57969012 529.36037257 -44.0625 526.875 C-43.53785156 526.00617187 -43.01320313 525.13734375 -42.47265625 524.2421875 C-41 522 -41 522 -39 520 C-37.98725718 518.24815239 -37.01260911 516.47409193 -36.0625 514.6875 C-34.56847268 511.88667641 -33.0693393 509.11533494 -31.43359375 506.39453125 C-30.17773714 504.2968743 -29.09051362 502.18530376 -28 500 C-27.03454466 498.34608625 -26.05447428 496.70064583 -25.0625 495.0625 C-24.55847656 494.22847656 -24.05445313 493.39445312 -23.53515625 492.53515625 C-22.51351243 490.84801416 -21.47964589 489.16821201 -20.43359375 487.49609375 C-18.97627376 485.09675993 -18.97627376 485.09675993 -18.109375 482.75390625 C-16.45898648 478.65699109 -14.32962732 474.83032278 -12.25 470.9375 C-4.67593433 456.68568683 -4.67593433 456.68568683 2 442 C2.65773333 440.66223728 3.3255248 439.3294004 4 438 C4.4021875 437.195625 4.804375 436.39125 5.21875 435.5625 C9 428 9 428 9.9765625 426.0703125 C14.03145321 417.86767099 17.66591029 409.51708371 21 401 C22.67427268 396.92350999 24.49953844 392.98579327 26.5 389.0625 C28.66562819 384.78327072 30.39243166 380.51650153 32 376 C33.29382514 372.68457308 34.67845211 369.4147994 36.08203125 366.14453125 C36.38496094 365.43683594 36.68789063 364.72914063 37 364 C37.39574219 363.07574219 37.79148437 362.15148437 38.19921875 361.19921875 C40.46276216 355.84964318 42.55651075 350.52356088 44.328125 344.9921875 C45.11780757 342.65068685 46.10576444 340.41507482 47.11328125 338.16015625 C48.86881093 333.88346941 50.3112875 329.47937711 51.81640625 325.109375 C53 322 53 322 55 319 C55.70626239 317.01363702 56.36893571 315.01151741 57 313 C57.33 312.030625 57.66 311.06125 58 310.0625 C58.70797856 307.89431567 59.34736292 305.70317843 59.9375 303.5 C62.54146663 294.92222759 67.37168477 287.02574112 74 281 C74.62519531 280.38253906 75.25039063 279.76507812 75.89453125 279.12890625 C88.18888126 267.41050777 101.58894766 264.35889936 118.00390625 264.6875 C128.17485467 265.14763716 137.96215283 268.64955641 146 275 C146 275.66 146 276.32 146 277 C146.5671875 277.23332031 147.134375 277.46664063 147.71875 277.70703125 C154.40978668 281.49938252 159.79315668 289.11122546 163 296 C163.36996094 296.76699219 163.73992188 297.53398438 164.12109375 298.32421875 C170.52497019 313.8574969 167.87305346 330.92792867 161.78613281 346.02587891 C160.65038539 348.87794527 159.67997297 351.78295497 158.6875 354.6875 C155.33099283 364.00751019 151.6436357 373.202694 148.01318359 382.41845703 C146.76221611 385.60586189 145.53425709 388.80128969 144.3125 392 C140.06521901 403.07795969 135.59472414 414.06200392 131 425 C130.38514113 426.48035434 129.7705804 427.96083253 129.15625 429.44140625 C125.34776677 438.59274576 121.38160781 447.63326369 117.13427734 456.59130859 C114.89310756 461.35053827 112.69177932 466.12836659 110.48132324 470.9019165 C107.99362637 476.27076707 105.49699842 481.63547075 103 487 C102.32106689 488.45913818 102.32106689 488.45913818 101.62841797 489.94775391 C97.34739403 499.1299268 92.94891809 508.1553951 88 517 C86.68107304 519.43431581 85.3675043 521.87075931 84.0625 524.3125 C83.72065674 524.95106934 83.37881348 525.58963867 83.02661133 526.24755859 C80.80713106 530.41730001 78.69667843 534.62927785 76.625 538.875 C73.28843149 545.60097861 69.54169001 552.03006623 65.69140625 558.47265625 C63.7925689 561.65045967 61.92999112 564.84644426 60.08984375 568.05859375 C59.60547852 568.90333252 59.12111328 569.74807129 58.62207031 570.6184082 C57.69300559 572.24174168 56.76641116 573.86649249 55.84277344 575.49291992 C53.86101854 578.94610178 51.85076055 582.28511034 49.48828125 585.4921875 C47.62871422 588.02112602 46.07409936 590.59352354 44.58203125 593.35546875 C41.93185933 598.23910588 38.86476339 602.75956262 35.6875 607.3125 C34.538284 608.97081494 33.3898462 610.62966944 32.2421875 612.2890625 C31.68885742 613.08860352 31.13552734 613.88814453 30.56542969 614.71191406 C27.79026061 618.76819675 25.13414769 622.90136625 22.48828125 627.04296875 C21.99714844 627.68878906 21.50601563 628.33460938 21 629 C20.34 629 19.68 629 19 629 C18.71125 629.763125 18.4225 630.52625 18.125 631.3125 C17 634 17 634 15 637 C14.34 637 13.68 637 13 637 C12.34 638.65 11.68 640.3 11 642 C10.34 642 9.68 642 9 642 C8.7421875 642.72574219 8.484375 643.45148437 8.21875 644.19921875 C6.94757501 647.12047667 5.45983598 649.30872649 3.5 651.8125 C2.8915625 652.60269531 2.283125 653.39289062 1.65625 654.20703125 C1.1096875 654.79871094 0.563125 655.39039063 0 656 C-0.66 656 -1.32 656 -2 656 C-2.28875 656.598125 -2.5775 657.19625 -2.875 657.8125 C-4 660 -4 660 -6 663 C-6.66 663 -7.32 663 -8 663 C-8 663.66 -8 664.32 -8 665 C-8.66 665 -9.32 665 -10 665 C-10.268125 665.5775 -10.53625 666.155 -10.8125 666.75 C-12.02929189 669.05550043 -13.30333879 671.02056192 -15 673 C-15.66 673 -16.32 673 -17 673 C-17.20367188 673.52980469 -17.40734375 674.05960938 -17.6171875 674.60546875 C-19.6006715 678.04014584 -22.3012115 680.55309626 -25.125 683.3125 C-25.71611572 683.89572021 -26.30723145 684.47894043 -26.91625977 685.07983398 C-31.14327053 689.22465448 -35.47993388 693.17717812 -40 697 C-41.04812495 697.92175772 -42.09487213 698.84508324 -43.140625 699.76953125 C-63.68898271 717.82813838 -63.68898271 717.82813838 -71 719 C-71 719.66 -71 720.32 -71 721 C-108.93445829 743.50349221 -150.28003096 753.36463913 -193.87548828 742.54394531 C-203.03438543 740.19896452 -211.51466451 737.15404805 -220 733 C-221.22647266 732.41777947 -222.45304117 731.83576081 -223.6796875 731.25390625 C-231.00951497 727.7295856 -238.07891547 723.90031268 -245 719.625 C-245.70084717 719.19614502 -246.40169434 718.76729004 -247.1237793 718.32543945 C-248.7874208 717.27521469 -250.39992128 716.14473717 -252 715 C-252 714.34 -252 713.68 -252 713 C-252.69480469 712.7628125 -253.38960937 712.525625 -254.10546875 712.28125 C-257.52198185 710.7689473 -260.35756671 708.74761633 -263.3125 706.5 C-263.86228516 706.09652344 -264.41207031 705.69304688 -264.97851562 705.27734375 C-266.36007451 704.23731309 -267.68556298 703.12366546 -269 702 C-269 701.34 -269 700.68 -269 700 C-269.56203125 699.7525 -270.1240625 699.505 -270.703125 699.25 C-273.39092569 697.78725133 -275.46405482 696.03195127 -277.75 694 C-278.54921875 693.29875 -279.3484375 692.5975 -280.171875 691.875 C-282 690 -282 690 -282 688 C-282.66 688 -283.32 688 -284 688 C-284 687.34 -284 686.68 -284 686 C-284.52851562 685.79632812 -285.05703125 685.59265625 -285.6015625 685.3828125 C-289.04948071 683.3949248 -291.59552774 680.69904569 -294.375 677.875 C-294.95572266 677.29041016 -295.53644531 676.70582031 -296.13476562 676.10351562 C-299.68456943 672.48167522 -302.893845 668.79176744 -305.80859375 664.6328125 C-307.61139021 662.16209473 -309.81373596 660.13020598 -312 658 C-317 652.49175824 -317 652.49175824 -317 650 C-317.66 650 -318.32 650 -319 650 C-320.24926758 648.64233398 -320.24926758 648.64233398 -321.64453125 646.74609375 C-322.15693359 646.05580078 -322.66933594 645.36550781 -323.19726562 644.65429688 C-323.73029297 643.92275391 -324.26332031 643.19121094 -324.8125 642.4375 C-325.59463867 641.38079102 -325.59463867 641.38079102 -326.39257812 640.30273438 C-327.93833343 638.20892101 -329.46921325 636.10476972 -331 634 C-331.7432251 633.00057373 -331.7432251 633.00057373 -332.50146484 631.98095703 C-336 627.22457702 -336 627.22457702 -336 625 C-336.66 625 -337.32 625 -338 625 C-338.66 623.02 -339.32 621.04 -340 619 C-340.66 619 -341.32 619 -342 619 C-343.26171875 617.41796875 -343.26171875 617.41796875 -344.6875 615.1875 C-345.21585449 614.36805908 -345.74420898 613.54861816 -346.28857422 612.7043457 C-346.85334473 611.81191162 -347.41811523 610.91947754 -348 610 C-348.58668457 609.08371826 -349.17336914 608.16743652 -349.77783203 607.22338867 C-351.52618817 604.48702796 -353.2641963 601.74433542 -355 599 C-355.85156079 597.66275933 -356.70312309 596.32551962 -357.5546875 594.98828125 C-370.1439805 575.10906807 -382.70272789 554.9533633 -393.08984375 533.82421875 C-395.2888386 529.38039217 -397.61582573 525.00560852 -399.9375 520.625 C-407.31601081 506.66591776 -414.24561027 492.52212906 -420.95361328 478.22949219 C-421.90302783 476.20661452 -422.85544578 474.18518273 -423.80859375 472.1640625 C-430.37987369 458.17163731 -436.81192501 444.12113573 -442.61938477 429.79248047 C-444.13464086 426.06241548 -445.71679233 422.39149763 -447.4375 418.75 C-450.31275529 412.55349272 -452.64770136 406.15296723 -455.05395508 399.76416016 C-457.19768568 394.07898863 -459.43182939 388.44883712 -461.796875 382.8515625 C-466.26415864 372.2635201 -470.25542679 361.57936788 -474.01171875 350.72265625 C-479.77870369 334.06741419 -485.72378616 317.47030664 -492 301 C-492.40476562 299.90429688 -492.80953125 298.80859375 -493.2265625 297.6796875 C-496.63723405 288.54788947 -500.64157277 279.71685445 -505 271 C-509.646701 277.13544986 -513.70624808 283.04652373 -517 290 C-517.98731742 291.34275169 -518.98594743 292.67732273 -520 294 C-520.7734375 295.5778125 -520.7734375 295.5778125 -521.5625 297.1875 C-523 300 -523 300 -525 301 C-525.36930626 302.3238209 -525.69728039 303.65938457 -526 305 C-526.58818404 306.30884197 -527.21492461 307.600901 -527.875 308.875 C-528.23207031 309.57238281 -528.58914063 310.26976562 -528.95703125 310.98828125 C-529.47330078 311.98408203 -529.47330078 311.98408203 -530 313 C-531.58097215 316.09870542 -533.07398124 319.17369509 -534.4375 322.375 C-535.54209841 324.93766831 -536.67707722 327.39354265 -537.9375 329.875 C-541.177332 336.29283514 -543.96814119 342.70369149 -546.15234375 349.5546875 C-547.14209934 352.40992714 -548.31009739 355.15987659 -549.5 357.9375 C-551.73375724 363.21424989 -553.4559012 368.48916461 -555 374 C-555.49739036 375.64662388 -555.99741873 377.29245306 -556.5 378.9375 C-557.59394414 382.59555659 -558.65711442 386.26100686 -559.6875 389.9375 C-559.93886719 390.83339844 -560.19023438 391.72929688 -560.44921875 392.65234375 C-561.11420363 395.08488284 -561.11420363 395.08488284 -561 398 C-561.66 398 -562.32 398 -563 398 C-562.505 399.485 -562.505 399.485 -562 401 C-562.4375 403.6875 -562.4375 403.6875 -563 406 C-563.66 406 -564.32 406 -565 406 C-565 408.97 -565 411.94 -565 415 C-565.66 415 -566.32 415 -567 415 C-566.505 416.485 -566.505 416.485 -566 418 C-566.27769908 420.3406065 -566.60539977 422.67624308 -567 425 C-567.66 425 -568.32 425 -569 425 C-568.690625 425.7734375 -568.690625 425.7734375 -568.375 426.5625 C-567.94289956 429.37115286 -568.60768038 431.22286521 -569.45703125 433.890625 C-570.55750613 438.16585116 -570.67034358 442.6106858 -571 447 C-571.3772373 451.29631366 -571.75660192 455.57610279 -572.48364258 459.8293457 C-574.43050917 471.75977967 -574.30254343 483.6891511 -574.26074219 495.7512207 C-574.25003319 499.42611226 -574.26068007 503.10051399 -574.2734375 506.77539062 C-574.28007117 519.03476815 -573.90473319 530.88410511 -572 543 C-571.81907245 544.72773272 -571.64908854 546.45672915 -571.5 548.1875 C-570.92934549 554.16435508 -569.95945177 560.07521025 -569 566 C-568.83371094 567.04929687 -568.66742187 568.09859375 -568.49609375 569.1796875 C-567.52734468 575.17525263 -566.37563417 581.08585625 -565 587 C-564.68673501 588.43733348 -564.3742512 589.87483742 -564.0625 591.3125 C-562.26174867 599.38774424 -560.25247258 607.38922515 -557.81640625 615.296875 C-556.83077279 618.56031211 -555.91852249 621.84206791 -555 625.125 C-553.55373754 630.20616546 -551.94642595 635.09162152 -550 640 C-549.24516698 642.04559748 -548.49497317 644.09284173 -547.74609375 646.140625 C-547.01847525 648.03400214 -547.01847525 648.03400214 -546.02734375 649.91015625 C-544.85950433 652.28579918 -543.99764411 654.68856459 -543.125 657.1875 C-540.29435648 665.07136639 -536.8060825 672.54642176 -533 680 C-531.38712081 683.16124321 -529.87775813 686.29032443 -528.5 689.5625 C-527.18753919 692.57022269 -525.69363457 695.20182115 -524 698 C-523.67 698.86625 -523.34 699.7325 -523 700.625 C-522.18517864 702.99888682 -522.18517864 702.99888682 -520.60839844 704.33520508 C-518.63448116 706.3783353 -517.5636784 708.48591936 -516.265625 711.01171875 C-513.12925598 716.89289407 -509.54669872 722.34087342 -505.75 727.8125 C-505.09467285 728.76447266 -504.4393457 729.71644531 -503.76416016 730.69726562 C-494.94008531 743.81095499 -494.94008531 743.81095499 -485.2265625 756.25 C-483 759 -483 759 -483 761 C-482.34 761 -481.68 761 -481 761 C-479.6043269 762.76494494 -478.28163478 764.58808217 -477 766.4375 C-474.54099616 770.32727075 -474.54099616 770.32727075 -471 773 C-471 773.66 -471 774.32 -471 775 C-470.34 775.33 -469.68 775.66 -469 776 C-467.92963534 776.92617046 -466.89047652 777.88895758 -465.875 778.875 C-465.33617187 779.38804687 -464.79734375 779.90109375 -464.2421875 780.4296875 C-463 782 -463 782 -463 785 C-462.42491699 785.24838623 -461.84983398 785.49677246 -461.25732422 785.75268555 C-458.66235365 787.18657097 -456.95309015 788.83659269 -454.8828125 790.95703125 C-453.72458984 792.13168945 -453.72458984 792.13168945 -452.54296875 793.33007812 C-451.34607422 794.55887695 -451.34607422 794.55887695 -450.125 795.8125 C-444.01978049 802.14275952 -444.01978049 802.14275952 -437.4296875 807.94921875 C-436.62789062 808.62597656 -435.82609375 809.30273438 -435 810 C-435 810.66 -435 811.32 -435 812 C-433.68 812.33 -432.36 812.66 -431 813 C-431 813.66 -431 814.32 -431 815 C-430.34 815 -429.68 815 -429 815 C-429 815.66 -429 816.32 -429 817 C-427.68 817.66 -426.36 818.32 -425 819 C-425 819.66 -425 820.32 -425 821 C-424.38125 821.144375 -423.7625 821.28875 -423.125 821.4375 C-421 822 -421 822 -419 823 C-419 823.66 -419 824.32 -419 825 C-418.34 825 -417.68 825 -417 825 C-417 825.66 -417 826.32 -417 827 C-416.27167969 827.25394531 -415.54335938 827.50789063 -414.79296875 827.76953125 C-411.82212668 829.07836377 -409.79118101 830.60213036 -407.3125 832.6875 C-403.17191469 836.08584705 -398.94081592 839.22876394 -394.52734375 842.26171875 C-392.75883427 843.47808153 -391.00187165 844.71132618 -389.25390625 845.95703125 C-388.36574219 846.58996094 -387.47757813 847.22289062 -386.5625 847.875 C-385.75941406 848.44992187 -384.95632813 849.02484375 -384.12890625 849.6171875 C-381.95939428 851.15329638 -381.95939428 851.15329638 -379 852 C-379 852.66 -379 853.32 -379 854 C-378.175 854.226875 -377.35 854.45375 -376.5 854.6875 C-372.08160504 856.34439811 -366.20621113 858.58757775 -364 863 C-362.67092127 863.34991232 -361.33656685 863.67987822 -360 864 C-358.39427242 864.81128544 -356.81304864 865.67175644 -355.25 866.5625 C-349.77270418 869.61856533 -344.20009793 872.43267602 -338.57128906 875.19555664 C-335.70598059 876.61009849 -332.93578157 878.03887141 -330.19921875 879.6953125 C-327.78998746 881.12459003 -325.75687512 881.6061607 -323 882 C-323 882.66 -323 883.32 -323 884 C-321.72125 884.2475 -320.4425 884.495 -319.125 884.75 C-314.84731467 885.70501812 -310.97219944 887.11074142 -306.93359375 888.79296875 C-291.87130374 895.77572025 -291.87130374 895.77572025 -276 899 C-276 899.66 -276 900.32 -276 901 C-275.34 900.938125 -274.68 900.87625 -274 900.8125 C-270.5872127 901.02579921 -268.11233983 902.01912808 -264.96484375 903.2734375 C-262.33916257 904.24436533 -259.77002924 904.61219591 -257 905 C-252.01093646 905.87786658 -247.18397499 906.89700834 -242.375 908.5 C-236.83400349 910.22080637 -231.22941402 910.81992452 -225.484375 911.46484375 C-220.59169675 912.02241703 -215.73863869 912.79688459 -210.875 913.5625 C-204.09952162 914.61012187 -197.38314993 915.41040487 -190.53125 915.7890625 C-188.56380383 915.90658694 -186.59649862 916.04070427 -184.63549805 916.23852539 C-175.59443499 917.12699027 -166.58731832 917.18612654 -157.51147461 917.18530273 C-154.83495994 917.18748172 -152.15886368 917.20567982 -149.48242188 917.22460938 C-139.72143173 917.25577793 -130.21666076 916.80514242 -120.54248047 915.47973633 C-117.46502331 915.06297524 -114.4074853 914.74461571 -111.3125 914.5 C-103.59206833 913.83424417 -95.9332175 912.64587572 -88.2890625 911.390625 C-87.12117187 911.19984375 -85.95328125 911.0090625 -84.75 910.8125 C-83.16445312 910.54373047 -83.16445312 910.54373047 -81.546875 910.26953125 C-79 910 -79 910 -77 911 C-76.67 910.34 -76.34 909.68 -76 909 C-72.44307323 908.14943055 -70.50729422 907.83090193 -67 909 C-66.67 908.34 -66.34 907.68 -66 907 C-63.99609375 906.4375 -63.99609375 906.4375 -61.4375 906 C-54.2623926 904.68710801 -47.36258183 902.84853183 -40.38671875 900.72265625 C-38.34776706 900.10529772 -36.29968122 899.51824301 -34.25 898.9375 C-24.70299009 896.18355483 -15.42172962 892.60278921 -6.21875 888.875 C-3.51268043 887.80781764 -0.76545651 886.90038119 2 886 C3.67540664 885.35561283 5.34183216 884.68753301 7 884 C8.11375 883.54625 9.2275 883.0925 10.375 882.625 C13.48860917 881.22924416 16.31676858 879.69617419 19.24609375 877.97265625 C22.06011491 876.41209663 25.03409729 875.24028659 28 874 C30.00812926 873.01642648 32.00854609 872.01691264 34 871 C34.87011719 870.58105469 35.74023438 870.16210938 36.63671875 869.73046875 C41.58511817 867.18442816 46.31266789 864.28514016 51.07421875 861.40820312 C51.80769531 860.97056641 52.54117188 860.53292969 53.296875 860.08203125 C53.96041992 859.68218018 54.62396484 859.2823291 55.30761719 858.87036133 C57 858 57 858 59 858 C60.0171234 857.01742176 61.01464029 856.01442902 62 855 C63.20520941 854.14987308 64.43652657 853.33591153 65.6875 852.5546875 C66.38617187 852.11769531 67.08484375 851.68070313 67.8046875 851.23046875 C68.52914062 850.78316406 69.25359375 850.33585937 70 849.875 C70.72445312 849.41996094 71.44890625 848.96492188 72.1953125 848.49609375 C75.14346445 846.66301772 77.6897516 845.10341613 81 844 C81.33 843.34 81.66 842.68 82 842 C86.47058824 838 86.47058824 838 90 838 C90 837.34 90 836.68 90 836 C94.35294118 832 94.35294118 832 98 832 C98.33 831.01 98.66 830.02 99 829 C101.5625 827.8125 101.5625 827.8125 104 827 C104 826.34 104 825.68 104 825 C104.99 825 105.98 825 107 825 C107.2475 824.401875 107.495 823.80375 107.75 823.1875 C109.18072525 820.68373081 110.5691582 819.51927612 113 818 C113.66 818 114.32 818 115 818 C115.22558594 817.42636719 115.45117188 816.85273437 115.68359375 816.26171875 C117.37167085 813.36143199 119.40921024 811.86124273 122.0625 809.8125 C127.43548573 805.53805395 132.23313095 800.92876271 137 796 C139.46946142 793.51478444 141.95189576 791.04673201 144.46484375 788.60546875 C149.05039909 784.12133169 153.23271372 779.71001994 156.84375 774.3984375 C157.2253125 773.93695312 157.606875 773.47546875 158 773 C158.66 773 159.32 773 160 773 C160 772.34 160 771.68 160 771 C160.66 771 161.32 771 162 771 C162.268125 770.4225 162.53625 769.845 162.8125 769.25 C164.02929189 766.94449957 165.30333879 764.97943808 167 763 C167.66 763 168.32 763 169 763 C169 762.01 169 761.02 169 760 C170.375 758.5 170.375 758.5 172 757 C172.66 756.01 173.32 755.02 174 754 C174.66 754 175.32 754 176 754 C176.268125 753.278125 176.53625 752.55625 176.8125 751.8125 C177.99901362 749.00233617 179.27485639 746.51583443 181 744 C181.66 744 182.32 744 183 744 C183.2475 743.29875 183.495 742.5975 183.75 741.875 C185.17180238 738.60485452 186.87246288 735.858878 189 733 C189.66 733 190.32 733 191 733 C191.66 731.02 192.32 729.04 193 727 C193.66 727 194.32 727 195 727 C195.28875 726.05125 195.5775 725.1025 195.875 724.125 C197 721 197 721 199 719 C199.68620031 717.67661368 200.34786461 716.34050052 201 715 C204.54146341 708.45853659 204.54146341 708.45853659 207 706 C207.165 705.34 207.33 704.68 207.5 704 C208 702 208 702 210 700 C211.18240439 697.93720295 212.32271504 695.85011102 213.4375 693.75 C214.03433594 692.63109375 214.63117187 691.5121875 215.24609375 690.359375 C217.71234294 685.63560149 220.07232194 680.99515498 221.9375 676 C223.11990211 672.97123153 224.32136025 670.28898211 226.1875 667.625 C227.91701619 665.12018344 228.3262803 663.8580453 229 661 C229.58086528 659.47011539 230.18716919 657.9497542 230.8125 656.4375 C233.4211907 650.0153778 235.84812303 643.52762322 238 636.9375 C239.211492 633.37874226 240.64623432 629.93182518 242.09765625 626.46484375 C243.00676076 623.9815323 243.51578535 621.59522061 244 619 C244.350625 617.96875 244.70125 616.9375 245.0625 615.875 C246.1550103 613.02863385 246.1550103 613.02863385 246 610 C246.66 610 247.32 610 248 610 C247.67 609.01 247.34 608.02 247 607 C247.48828125 605.08984375 247.48828125 605.08984375 248.3125 602.9375 C249.76201226 598.87099501 250.68501039 594.90009056 251.46484375 590.66015625 C252.04513699 587.7756329 252.79592428 584.96540375 253.5625 582.125 C254.87865482 576.99857699 255.41888426 572.07224966 255.75390625 566.80078125 C255.97670725 564.26509362 256.39126726 561.96603408 257 559.5 C258.32423662 554.05591612 258.61280624 548.57559019 259 543 C259.16408119 541.06227933 259.33074874 539.12477593 259.5 537.1875 C260.52140632 524.72206476 261.17362635 512.38549898 261.125 499.875 C261.1234491 499.16065796 261.12189819 498.44631592 261.12030029 497.71032715 C261.09873297 474.61122575 261.09873297 474.61122575 258.46875 451.69921875 C258.05522929 449.31802868 257.74513391 446.96568776 257.5 444.5625 C256.49354317 434.9570173 255.01056517 425.44458764 253 416 C252.82855469 415.12859375 252.65710937 414.2571875 252.48046875 413.359375 C252.03458295 411.01431296 252.03458295 411.01431296 251.375 408.8125 C251 407 251 407 252 405 C251.34 404.67 250.68 404.34 250 404 C249.47265625 402.06640625 249.47265625 402.06640625 249.0625 399.5625 C248.24766267 395.05843854 247.08498408 390.80013586 245.71484375 386.4375 C245.03306895 384.11275969 244.52862658 381.81350807 244.0625 379.4375 C243.21591118 375.42325803 241.75026499 371.96501613 240.01171875 368.26171875 C237.95273747 363.65882238 236.56453898 358.80652474 235.0625 354 C233.86422881 350.61664604 232.41472918 347.40149295 230.90234375 344.1484375 C230 342 230 342 229.52734375 340.0234375 C228.88213211 337.54773653 227.81447264 335.51360249 226.625 333.25 C224.72978383 329.5573152 223.13838601 325.93483086 221.87109375 321.984375 C220.98111422 319.79760194 220.98111422 319.79760194 219.1640625 317.26953125 C216.74668189 313.61727932 214.84395164 309.87162275 212.9375 305.9375 C210.27977201 300.4646906 210.27977201 300.4646906 207.25390625 295.19140625 C206 293 206 293 206 290 C205.34 289.67 204.68 289.34 204 289 C200 283.58823529 200 283.58823529 200 280 C199.34 279.67 198.68 279.34 198 279 C197.375 276.9375 197.375 276.9375 197 275 C196.34 275 195.68 275 195 275 C194.71125 274.030625 194.4225 273.06125 194.125 272.0625 C193.35785318 268.89335797 193.35785318 268.89335797 191 268 C190.33333333 266.33333333 189.66666667 264.66666667 189 263 C188.34 262.67 187.68 262.34 187 262 C185.91600611 260.72223518 184.87921149 259.40387429 183.875 258.0625 C183.33617187 257.35222656 182.79734375 256.64195312 182.2421875 255.91015625 C181 254 181 254 181 252 C180.34 252 179.68 252 179 252 C177.484375 250.09375 177.484375 250.09375 175.75 247.5 C173.44012175 244.10992816 171.12502022 240.73743523 168.6875 237.4375 C168.21699219 236.79683594 167.74648437 236.15617188 167.26171875 235.49609375 C166.05148556 233.86098154 166.05148556 233.86098154 164 233 C164 232.01 164 231.02 164 230 C163.40703125 229.7421875 162.8140625 229.484375 162.203125 229.21875 C159.82339035 227.90230105 158.49021208 226.57419218 156.75 224.5 C155.96882813 223.58734375 155.96882813 223.58734375 155.171875 222.65625 C154 221 154 221 154 219 C153.34 219 152.68 219 152 219 C152 218.34 152 217.68 152 217 C151.34 217 150.68 217 150 217 C150 216.34 150 215.68 150 215 C149.34 215 148.68 215 148 215 C148 214.34 148 213.68 148 213 C147.34 213 146.68 213 146 213 C145.08051965 211.60375207 144.16491469 210.20479058 143.26953125 208.79296875 C140.02815355 204.21514609 136.14301963 200.30082457 131 198 C131 197.34 131 196.68 131 196 C130.34 196 129.68 196 129 196 C129 195.34 129 194.68 129 194 C128.34 194 127.68 194 127 194 C124.48549279 191.73694351 122.39257953 189.83134488 120.9375 186.75 C120.628125 186.1725 120.31875 185.595 120 185 C118.67405895 184.63837971 117.34061543 184.30271961 116 184 C115.67 183.01 115.34 182.02 115 181 C114.01 181 113.02 181 112 181 C110.31126121 179.35570171 108.64694485 177.68615782 107 176 C105.34051852 174.98812105 103.67419438 173.9873454 102 173 C101.42765625 172.41089844 100.8553125 171.82179688 100.265625 171.21484375 C97.50437046 168.5154794 94.4643725 166.33487506 91.3125 164.125 C90.6947168 163.68736328 90.07693359 163.24972656 89.44042969 162.79882812 C85.23867436 159.83417116 80.99045126 156.94871284 76.671875 154.15625 C75 153 75 153 73 151 C71.76690738 150.28261668 70.51339202 149.60006837 69.25 148.9375 C64.34791589 146.27591462 59.70086221 143.28283925 55.04980469 140.21069336 C51.46929913 137.86626625 47.84910975 135.86465669 44 134 C42.32894244 133.09136245 40.66226062 132.17463247 39 131.25 C33.40016037 128.17316504 27.7025104 125.33176396 21.96875 122.515625 C19 121 19 121 16 119 C13.67793475 118.29508733 11.34406932 117.62787571 9 117 C8.01 116.67 7.02 116.34 6 116 C6 115.34 6 114.68 6 114 C4.7625 113.87625 3.525 113.7525 2.25 113.625 C-0.96222275 113.30377773 -3.13988012 112.460724 -6 111 C-7.42599106 110.62043861 -8.86521876 110.28791385 -10.3125 110 C-13.03647857 109.45227002 -15.5677192 108.81305966 -18.21484375 107.94140625 C-22.68839483 106.82878931 -26.67099745 106.81364173 -31.25 106.9375 C-39.64113208 107.11962264 -39.64113208 107.11962264 -43 106 C-43.33 106.66 -43.66 107.32 -44 108 C-45.98 108 -47.96 108 -50 108 C-50 108.66 -50 109.32 -50 110 C-56.625 112.875 -56.625 112.875 -60 114 C-60.33 114.99 -60.66 115.98 -61 117 C-63 118.66666667 -65 120.33333333 -67 122 C-67.33 122.99 -67.66 123.98 -68 125 C-68.66 125 -69.32 125 -70 125 C-70.2475 125.515625 -70.495 126.03125 -70.75 126.5625 C-72.08274786 129.16135832 -73.53763004 131.67893008 -74.9921875 134.2109375 C-77.08992389 137.93482613 -78.91118796 141.74912079 -80.5625 145.6875 C-82 149 -82 149 -84 152 C-84 153.32 -84 154.64 -84 156 C-84.66 156 -85.32 156 -86 156 C-86.29003906 157.71509766 -86.29003906 157.71509766 -86.5859375 159.46484375 C-86.84849766 160.95581037 -87.11154361 162.44669149 -87.375 163.9375 C-87.56449219 165.06961914 -87.56449219 165.06961914 -87.7578125 166.22460938 C-88.10547563 168.16283135 -88.54643504 170.08379205 -89 172 C-89.66 172.33 -90.32 172.66 -91 173 C-90.95875 174.2375 -90.9175 175.475 -90.875 176.75 C-90.86315001 180.12132308 -91.364086 182.03490588 -93 185 C-93 185.763125 -93 186.52625 -93 187.3125 C-93 190 -93 190 -93.9375 193.25 C-95.41093072 198.4503437 -96 203.59966262 -96 209 C-96.66 209.33 -97.32 209.66 -98 210 C-97.79375 210.78375 -97.5875 211.5675 -97.375 212.375 C-96.94797429 216.5029152 -97.6302208 219.64126094 -98.625 223.6328125 C-99.01796437 226.11340007 -98.78360942 227.63828828 -98 230 C-98.66 230 -99.32 230 -100 230 C-99.814375 231.27875 -99.62875 232.5575 -99.4375 233.875 C-98.96400892 237.13682745 -99.07286339 240.09549633 -99.43359375 243.3515625 C-100.13077212 249.70940422 -100.35028481 256.07174465 -100.55761719 262.46191406 C-100.62580549 264.52436314 -100.70332457 266.58633588 -100.78125 268.6484375 C-100.84699219 270.60136719 -100.84699219 270.60136719 -100.9140625 272.59375 C-100.9752124 274.36782227 -100.9752124 274.36782227 -101.03759766 276.17773438 C-101.20541362 278.95188908 -101.20541362 278.95188908 -100 281 C-100.66 281 -101.32 281 -102 281 C-101.79375 281.53625 -101.5875 282.0725 -101.375 282.625 C-100.55881857 287.79414904 -103.67740872 292.48810908 -105.98046875 296.96484375 C-107.4616024 299.9214362 -108.72838664 302.94812794 -110 306 C-110.66 306 -111.32 306 -112 306 C-112 306.99 -112 307.98 -112 309 C-112.99 309 -113.98 309 -115 309 C-115.09667969 309.59425781 -115.19335938 310.18851563 -115.29296875 310.80078125 C-116.14685266 313.45678478 -117.18480122 314.41517703 -119.3125 316.1875 C-119.90675781 316.69667969 -120.50101563 317.20585938 -121.11328125 317.73046875 C-123.09667013 319.06504719 -124.70578274 319.43745206 -127 320 C-127.33 320.66 -127.66 321.32 -128 322 C-130.5625 323.4375 -130.5625 323.4375 -134 325 C-134.88558594 325.40798828 -134.88558594 325.40798828 -135.7890625 325.82421875 C-141.43441478 328.20548874 -146.91829077 328.71851837 -153 329 C-154.23943359 329.07927734 -154.23943359 329.07927734 -155.50390625 329.16015625 C-165.65062228 329.53475411 -174.99553565 326.47949363 -184 322 C-184 321.34 -184 320.68 -184 320 C-184.721875 319.7525 -185.44375 319.505 -186.1875 319.25 C-189.29567538 317.86858872 -191.52723148 316.33146746 -194 314 C-194 313.01 -194 312.02 -194 311 C-195.32 310.67 -196.64 310.34 -198 310 C-198 309.01 -198 308.02 -198 307 C-198.66 307 -199.32 307 -200 307 C-200.12375 306.360625 -200.2475 305.72125 -200.375 305.0625 C-200.684375 304.0415625 -200.684375 304.0415625 -201 303 C-201.66 302.67 -202.32 302.34 -203 302 C-205.1462701 298.28530176 -206 296.35855288 -206 292 C-206.66 291.67 -207.32 291.34 -208 291 C-210.38814111 284.8881647 -210.27486446 278.97140263 -210.23046875 272.4765625 C-210.23001053 271.3758139 -210.22955231 270.27506531 -210.2290802 269.14096069 C-210.2260681 266.81954873 -210.21821315 264.4981386 -210.20581055 262.17675781 C-210.18759695 258.64380642 -210.18530084 255.1111184 -210.18554688 251.578125 C-210.18062913 249.31510192 -210.1747997 247.05208061 -210.16796875 244.7890625 C-210.16685593 243.74191071 -210.1657431 242.69475891 -210.16459656 241.61587524 C-210.13077092 236.32567358 -209.91100617 231.16624389 -209.20674133 225.92050171 C-208.93293987 223.37705203 -209.05150497 220.85839156 -209.09765625 218.3046875 C-208.92390484 214.2041542 -208.14144493 210.18634386 -207.4375 206.1484375 C-206.92858374 203.01583952 -206.92858374 203.01583952 -207 199.88671875 C-207 197.18443353 -206.67038569 195.03990001 -206 192.4375 C-205.40107805 189.94615105 -205 187.94820868 -205 185.375 C-205 182.73488032 -204.29384423 180.61497339 -203.51171875 178.11328125 C-202.47364495 173.82627418 -202.30168199 169.3902669 -202 165 C-201.34 165 -200.68 165 -200 165 C-200.33 164.01 -200.66 163.02 -201 162 C-200.36729133 160.65022151 -199.69937532 159.31647119 -199 158 C-199 157.01 -199 156.02 -199 155 C-198.68330179 152.66435067 -198.35179197 150.3306218 -198 148 C-197.34 148 -196.68 148 -196 148 C-196.33 147.01 -196.66 146.02 -197 145 C-196.34 144.01 -195.68 143.02 -195 142 C-194.63729412 140.00511766 -194.30830925 138.00401011 -194 136 C-191.99137218 128.11999857 -189.0247583 120.53750253 -186 113 C-185.49558044 111.66833237 -184.99527713 110.33509488 -184.5 109 C-182.5706494 103.79914187 -180.46071132 98.82223005 -177.9375 93.875 C-176.42716917 90.91342219 -175.05151186 88.15453558 -174 85 C-173.34 84.67 -172.68 84.34 -172 84 C-171.855625 83.21625 -171.71125 82.4325 -171.5625 81.625 C-170.90463272 78.5549527 -170.17515024 78.15519473 -168 76 C-166.69583456 74.14802946 -165.42865277 72.2697776 -164.1875 70.375 C-163.48753906 69.31539063 -162.78757812 68.25578125 -162.06640625 67.1640625 C-160.77404806 65.18521537 -159.48896412 63.20157633 -158.21484375 61.2109375 C-157.69019531 60.39882813 -157.16554688 59.58671875 -156.625 58.75 C-156.16351562 58.02296875 -155.70203125 57.2959375 -155.2265625 56.546875 C-154.82179688 56.03640625 -154.41703125 55.5259375 -154 55 C-153.34 55 -152.68 55 -152 55 C-151.76152344 54.44699219 -151.52304687 53.89398438 -151.27734375 53.32421875 C-149.69957045 50.45334685 -147.75238294 48.24690189 -145.5625 45.8125 C-144.38880859 44.49185547 -144.38880859 44.49185547 -143.19140625 43.14453125 C-141 41 -141 41 -138 40 C-138 39.34 -138 38.68 -138 38 C-137.34 38 -136.68 38 -136 38 C-135.773125 37.4225 -135.54625 36.845 -135.3125 36.25 C-133.65151778 33.40260191 -131.68475439 31.87932807 -129 30 C-128.34 30 -127.68 30 -127 30 C-127 29.34 -127 28.68 -127 28 C-124.86733595 26.3514752 -122.74888986 24.8512413 -120.5 23.375 C-119.82799561 22.9313208 -119.15599121 22.4876416 -118.46362305 22.03051758 C-111.27651145 17.38532131 -103.76123253 13.58146588 -96 10 C-94.49373047 9.29230469 -94.49373047 9.29230469 -92.95703125 8.5703125 C-63.61745013 -4.46050836 -31.20762957 -5.61216203 0 0 Z M-375 304 C-374 306 -374 306 -374 306 Z " fill="#D7D7D7" transform="translate(938,270)"/>
<path d="M0 0 C1.010625 0.7425 2.02125 1.485 3.0625 2.25 C4.0215625 3.11625 4.0215625 3.11625 5 4 C5 4.66 5 5.32 5 6 C5.66 6 6.32 6 7 6 C8.68533656 7.96622599 9.93065283 9.85722642 11.0625 12.1875 C11.86702161 14.17892157 11.86702161 14.17892157 14 15 C14 16.32 14 17.64 14 19 C14.66 19 15.32 19 16 19 C17.125 22.75 17.125 22.75 16 25 C16.66 25.33 17.32 25.66 18 26 C18.33 26.66 18.66 27.32 19 28 C18.505 28.99 18.505 28.99 18 30 C18.66 30.33 19.32 30.66 20 31 C21.95144131 43.19650817 20.15812003 53.52358871 16 65 C15.34 65 14.68 65 14 65 C13.896875 65.886875 13.79375 66.77375 13.6875 67.6875 C12.98284093 71.0826755 12.0445434 73.21942098 10 76 C9.34 76 8.68 76 8 76 C7.79375 76.556875 7.5875 77.11375 7.375 77.6875 C5.48105476 80.87277155 2.88323975 82.70517652 0 85 C-0.47695313 85.49113281 -0.95390625 85.98226562 -1.4453125 86.48828125 C-3.15820825 88.15383566 -4.91347236 89.35852589 -6.9375 90.625 C-7.60652344 91.05039062 -8.27554688 91.47578125 -8.96484375 91.9140625 C-11.0107205 93.00572035 -12.74605084 93.50153047 -15 94 C-15.70253906 94.24878906 -16.40507813 94.49757813 -17.12890625 94.75390625 C-31.03720765 99.37512357 -45.85990074 98.23606213 -59.01953125 92.05078125 C-61.33692063 90.82123935 -63.54245773 89.48008842 -65.75 88.0625 C-66.54921875 87.55847656 -67.3484375 87.05445313 -68.171875 86.53515625 C-68.77515625 86.02855469 -69.3784375 85.52195312 -70 85 C-70 84.01 -70 83.02 -70 82 C-70.66 82 -71.32 82 -72 82 C-72 81.34 -72 80.68 -72 80 C-72.7425 79.79375 -73.485 79.5875 -74.25 79.375 C-80.96840199 76.01579901 -84.49144288 65.84712721 -87 59 C-90.81588797 42.77069869 -89.38851492 28.83343071 -82 14 C-81.34 14 -80.68 14 -80 14 C-79.835 13.154375 -79.67 12.30875 -79.5 11.4375 C-77.41143433 6.65120367 -74.05666161 4.16113443 -70 1 C-69.29617188 0.43667969 -68.59234375 -0.12664063 -67.8671875 -0.70703125 C-66 -2 -66 -2 -64 -2 C-64 -2.66 -64 -3.32 -64 -4 C-41.97478282 -14.26798381 -20.31353102 -15.33016998 0 0 Z " fill="#D5D5D5" transform="translate(816,631)"/>
<path d="M0 0 C0.66 0.33 1.32 0.66 2 1 C1.814375 1.9075 1.62875 2.815 1.4375 3.75 C1.04265379 6.68314324 1.05308428 8.2644657 2 11 C1.34 11 0.68 11 0 11 C0.185625 12.27875 0.37125 13.5575 0.5625 14.875 C1.03599108 18.13682745 0.92713661 21.09549633 0.56640625 24.3515625 C-0.13077212 30.70940422 -0.35028481 37.07174465 -0.55761719 43.46191406 C-0.62580549 45.52436314 -0.70332457 47.58633588 -0.78125 49.6484375 C-0.82507813 50.95039062 -0.86890625 52.25234375 -0.9140625 53.59375 C-0.9548291 54.77646484 -0.9955957 55.95917969 -1.03759766 57.17773438 C-1.20541362 59.95188908 -1.20541362 59.95188908 0 62 C-0.66 62 -1.32 62 -2 62 C-1.79375 62.5775 -1.5875 63.155 -1.375 63.75 C-0.91338739 66.51967567 -1.57055055 67.64561267 -3 70 C-4.21321704 67.57356591 -3.94826885 66.5658462 -3.58007812 63.90991211 C-3.01979304 59.40735645 -2.8032533 54.97477612 -2.71875 50.44140625 C-2.69113586 49.25936867 -2.69113586 49.25936867 -2.66296387 48.05345154 C-2.60492146 45.55653451 -2.55193594 43.05955093 -2.5 40.5625 C-2.29064559 30.69055918 -2.04651754 20.82633226 -1.53125 10.96484375 C-1.49390747 10.20708145 -1.45656494 9.44931915 -1.41809082 8.66859436 C-1.24423536 5.56960298 -0.98678119 2.96034356 0 0 Z " fill="#7A7A7A" transform="translate(838,489)"/>
<path d="M0 0 C0.66 0.33 1.32 0.66 2 1 C-2.21576859 8.93556441 -9.01810156 15.14501417 -15.25 21.5 C-15.86464111 22.13607178 -16.47928223 22.77214355 -17.11254883 23.42749023 C-17.69931396 24.01860596 -18.2860791 24.60972168 -18.890625 25.21875 C-19.41688477 25.75435547 -19.94314453 26.28996094 -20.48535156 26.84179688 C-22 28 -22 28 -25 28 C-25 27.01 -25 26.02 -25 25 C-24.34 25 -23.68 25 -23 25 C-23 24.34 -23 23.68 -23 23 C-22.29875 22.608125 -21.5975 22.21625 -20.875 21.8125 C-17.69107607 19.80524361 -15.77884349 17.61392603 -13.4296875 14.71875 C-12 13 -12 13 -10.3828125 11.40625 C-8.88570226 10.02827515 -8.88570226 10.02827515 -8 8 C-7.34 8 -6.68 8 -6 8 C-6 7.34 -6 6.68 -6 6 C-5.34 6 -4.68 6 -4 6 C-3.566875 5.071875 -3.566875 5.071875 -3.125 4.125 C-2 2 -2 2 0 0 Z " fill="#919191" transform="translate(850,859)"/>
<path d="M0 0 C17.43931994 1.9948375 35.16397028 1.22908566 52.6875 1.0625 C52.3575 1.7225 52.0275 2.3825 51.6875 3.0625 C46.19637364 3.08766911 40.7052826 3.10557576 35.21411133 3.11743164 C33.3553814 3.12238655 31.49665521 3.12915237 29.63793945 3.13793945 C19.79453754 3.18322709 9.97713462 3.12286275 0.14453125 2.62109375 C-0.6359407 2.58210464 -1.41641266 2.54311554 -2.22053528 2.50294495 C-5.99782425 2.28717364 -9.62694367 1.9319718 -13.3125 1.0625 C-13.3125 0.7325 -13.3125 0.4025 -13.3125 0.0625 C-8.73065953 -1.22981398 -4.63083274 -0.59725714 0 0 Z " fill="#909090" transform="translate(750.3125,1185.9375)"/>
<path d="M0 0 C4.08014766 0.51001846 7.11267802 1.98429492 10.64453125 3.96484375 C18.49558556 7.41514125 26.05915283 7.24558353 34.5 7.125 C35.70398438 7.11597656 36.90796875 7.10695313 38.1484375 7.09765625 C41.0991679 7.07423775 44.04947689 7.04143993 47 7 C42.57899659 9.94733561 38.21528921 9.71102619 33 10 C31.75089844 10.08121094 31.75089844 10.08121094 30.4765625 10.1640625 C20.33526572 10.52507954 11.00044227 7.47749275 2 3 C2 2.34 2 1.68 2 1 C1.34 0.67 0.68 0.34 0 0 Z " fill="#747474" transform="translate(752,589)"/>
<path d="M0 0 C0.33 0 0.66 0 1 0 C2.05575078 6.0166835 2.12939265 11.86547909 2.09765625 17.96484375 C2.09553383 19.51480797 2.09553383 19.51480797 2.09336853 21.09608459 C2.08779839 24.3765866 2.07525141 27.65701883 2.0625 30.9375 C2.05748114 33.16992089 2.05291891 35.40234285 2.04882812 37.63476562 C2.03783875 43.08986731 2.0211305 48.54492867 2 54 C1.67 54 1.34 54 1 54 C0.97494385 53.07364746 0.9498877 52.14729492 0.92407227 51.19287109 C0.82771578 47.68514526 0.72857773 44.17751912 0.62768555 40.66992188 C0.58494133 39.16506928 0.54323809 37.66018668 0.50268555 36.15527344 C0.26517505 27.37031715 -0.0991743 18.63801206 -0.84375 9.87890625 C-1.0325139 6.4009313 -0.72751144 3.39505341 0 0 Z " fill="#939393" transform="translate(1199,732)"/>
<path d="M0 0 C0.66 0.33 1.32 0.66 2 1 C1.67 1.66 1.34 2.32 1 3 C1.66 3.33 2.32 3.66 3 4 C4.36923087 12.55769295 4.22306362 20.62544525 2 29 C1.65765292 30.66483854 1.32206472 32.33111918 1 34 C0.34 34 -0.32 34 -1 34 C-0.9285376 33.42459473 -0.8570752 32.84918945 -0.78344727 32.25634766 C0.00737648 25.2763784 0.11793665 18.39413308 0.0625 11.375 C0.05798828 10.27542969 0.05347656 9.17585937 0.04882812 8.04296875 C0.03717139 5.36191997 0.02081017 2.68099068 0 0 Z " fill="#828282" transform="translate(833,658)"/>
<path d="M0 0 C-1.39750048 3.15835107 -3.05198234 5.32272825 -5.5 7.75 C-6.1084375 8.36359375 -6.716875 8.9771875 -7.34375 9.609375 C-9 11 -9 11 -11 11 C-11 11.66 -11 12.32 -11 13 C-11.66 13 -12.32 13 -13 13 C-13.37125 14.5159375 -13.37125 14.5159375 -13.75 16.0625 C-14.53862451 18.86523747 -15.574117 21.18701656 -17.0625 23.6875 C-18.59482931 26.30728883 -19.53058562 28.06616013 -20 31 C-20.66 30.67 -21.32 30.34 -22 30 C-18.62866736 20.97838918 -15.27309035 12.56352056 -8 6 C-6.93507515 4.89817182 -5.87262799 3.79394427 -4.8125 2.6875 C-2 0 -2 0 0 0 Z " fill="#898989" transform="translate(1019,546)"/>
<path d="M0 0 C0.33 0 0.66 0 1 0 C1.21985322 6.04596345 0.76652224 11.87812586 0.0625 17.875 C-0.02435059 18.62450928 -0.11120117 19.37401855 -0.20068359 20.14624023 C-0.57849786 23.23335294 -1.01377093 26.04131278 -2 29 C-2.66 29 -3.32 29 -4 29 C-2.23978202 6.71934605 -2.23978202 6.71934605 0 0 Z " fill="#6E6E6E" transform="translate(734,452)"/>
<path d="M0 0 C0.33 0 0.66 0 1 0 C1.2632613 7.8978389 1.2632613 7.8978389 -1 12 C-1 12.763125 -1 13.52625 -1 14.3125 C-1 17.79076683 -2.00836843 20.67511766 -3 24 C-3.36270588 25.99488234 -3.70640699 27.9937811 -4 30 C-4.33 30 -4.66 30 -5 30 C-5.3401179 19.45634495 -2.87704352 10.08883262 0 0 Z " fill="#868686" transform="translate(846,443)"/>
<path d="M0 0 C0.66 0.33 1.32 0.66 2 1 C1.814375 1.9075 1.62875 2.815 1.4375 3.75 C1.04265379 6.68314324 1.05308428 8.2644657 2 11 C1.34 11 0.68 11 0 11 C0.12568359 11.85271484 0.12568359 11.85271484 0.25390625 12.72265625 C0.91910197 17.76635545 0.9568837 22.00294069 0 27 C-0.33 27 -0.66 27 -1 27 C-1.02898816 23.06251542 -1.04679464 19.12505821 -1.0625 15.1875 C-1.07087891 14.06794922 -1.07925781 12.94839844 -1.08789062 11.79492188 C-1.09111328 10.72177734 -1.09433594 9.64863281 -1.09765625 8.54296875 C-1.10289307 7.55321045 -1.10812988 6.56345215 -1.11352539 5.54370117 C-1 3 -1 3 0 0 Z " fill="#717171" transform="translate(838,489)"/>
<path d="M0 0 C0.66 0.33 1.32 0.66 2 1 C-8.6744186 12.97674419 -8.6744186 12.97674419 -12 16 C-12.66 16 -13.32 16 -14 16 C-12.40907948 11.86360664 -9.39525082 8.76786752 -6 6 C-5.34 6 -4.68 6 -4 6 C-4 5.34 -4 4.68 -4 4 C-3.34 4 -2.68 4 -2 4 C-1.34 2.68 -0.68 1.36 0 0 Z " fill="#A6A6A6" transform="translate(804,304)"/>
<path d="M0 0 C0.66 0.33 1.32 0.66 2 1 C-1.56252734 5.1229249 -5.14619277 9.14619277 -9 13 C-9.33 13.66 -9.66 14.32 -10 15 C-10.66 15 -11.32 15 -12 15 C-10.74878085 8.58750186 -6.82136094 5.89726676 -2 2 C-1.34 1.34 -0.68 0.68 0 0 Z " fill="#9D9D9D" transform="translate(748,630)"/>
<path d="M0 0 C3.01598607 1.50799304 3.13739043 3.67733534 4.1875 6.8125 C4.55230469 7.87082031 4.91710938 8.92914062 5.29296875 10.01953125 C5.98036862 12.91724451 6.03931179 14.26601422 5 17 C2.14711836 11.26769829 0.46555704 6.40140935 0 0 Z " fill="#929292" transform="translate(1176,628)"/>
<path d="M0 0 C0.8971875 0.309375 0.8971875 0.309375 1.8125 0.625 C0.56693908 1.44428886 -0.68416635 2.25515186 -1.9375 3.0625 C-2.63359375 3.51496094 -3.3296875 3.96742188 -4.046875 4.43359375 C-6.13977299 5.59843661 -7.858733 6.13747358 -10.1875 6.625 C-11.1775 6.955 -12.1675 7.285 -13.1875 7.625 C-13.5175 6.965 -13.8475 6.305 -14.1875 5.625 C-13.57261719 5.35945312 -12.95773437 5.09390625 -12.32421875 4.8203125 C-11.51597656 4.46710937 -10.70773437 4.11390625 -9.875 3.75 C-9.07449219 3.40195312 -8.27398438 3.05390625 -7.44921875 2.6953125 C-1.28731629 -0.22068279 -1.28731629 -0.22068279 0 0 Z " fill="#6C6C6C" transform="translate(811.1875,718.375)"/>
<path d="M0 0 C3.50778211 4.20933853 7 9.4255442 7 15 C4 14 4 14 2.83203125 11.85546875 C2.49558594 10.97503906 2.15914062 10.09460938 1.8125 9.1875 C1.46832031 8.31480469 1.12414062 7.44210937 0.76953125 6.54296875 C0 4 0 4 0 0 Z " fill="#585858" transform="translate(614,697)"/>
<path d="M0 0 C2 3 2 3 1.625 5.6875 C1.41875 6.450625 1.2125 7.21375 1 8 C0.34 8 -0.32 8 -1 8 C-0.67 8.99 -0.34 9.98 0 11 C-0.4375 13.6875 -0.4375 13.6875 -1 16 C-1.66 16 -2.32 16 -3 16 C-2.52013969 10.43109483 -1.70084819 5.32932432 0 0 Z " fill="#828282" transform="translate(376,660)"/>
<path d="M0 0 C1.11346788 2.80033839 1.03510273 3.90143703 0.00390625 6.796875 C-0.47175781 7.77140625 -0.94742188 8.7459375 -1.4375 9.75 C-1.91058594 10.73484375 -2.38367188 11.7196875 -2.87109375 12.734375 C-3.24363281 13.48203125 -3.61617187 14.2296875 -4 15 C-4.66 14.34 -5.32 13.68 -6 13 C-4.14332089 8.57933544 -2.18740977 4.27065717 0 0 Z " fill="#707070" transform="translate(981,620)"/>
<path d="M0 0 C1.06863281 0.19464844 2.13726563 0.38929687 3.23828125 0.58984375 C4.45064453 0.82380859 4.45064453 0.82380859 5.6875 1.0625 C5.6875 1.3925 5.6875 1.7225 5.6875 2.0625 C3.79174749 2.08971176 1.89588021 2.10899136 0 2.125 C-1.58361328 2.14240234 -1.58361328 2.14240234 -3.19921875 2.16015625 C-6.03660262 2.07115425 -8.5563919 1.71189838 -11.3125 1.0625 C-11.3125 0.7325 -11.3125 0.4025 -11.3125 0.0625 C-7.22971966 -1.02068662 -4.13371165 -0.77223185 0 0 Z " fill="#A4A4A4" transform="translate(748.3125,1185.9375)"/>
<path d="M0 0 C0.66 0 1.32 0 2 0 C8.31578947 10.73684211 8.31578947 10.73684211 7 16 C4.69 10.72 2.38 5.44 0 0 Z " fill="#5E5E5E" transform="translate(1150,572)"/>
<path d="M0 0 C3.24599209 3.98371757 4.8909517 8.00928267 6 13 C5.01 13.495 5.01 13.495 4 14 C3.32471777 12.42032193 2.66010306 10.83608097 2 9.25 C1.62875 8.36828125 1.2575 7.4865625 0.875 6.578125 C0 4 0 4 0 0 Z " fill="#5E5E5E" transform="translate(539,509)"/>
<path d="M0 0 C0.33 0 0.66 0 1 0 C1 4.29 1 8.58 1 13 C0.01 13.33 -0.98 13.66 -2 14 C-1.34 9.38 -0.68 4.76 0 0 Z " fill="#818181" transform="translate(1198,807)"/>
<path d="M0 0 C0 0.66 0 1.32 0 2 C-0.99 2.33 -1.98 2.66 -3 3 C-3.9590625 4.051875 -3.9590625 4.051875 -4.9375 5.125 C-5.618125 5.74375 -6.29875 6.3625 -7 7 C-9.12890625 6.6171875 -9.12890625 6.6171875 -11 6 C-9.54550599 4.9944239 -8.08627557 3.99569565 -6.625 3 C-5.40683594 2.1646875 -5.40683594 2.1646875 -4.1640625 1.3125 C-2 0 -2 0 0 0 Z " fill="#747474" transform="translate(1013,1118)"/>
<path d="M0 0 C2.52475462 1.26237731 3.46605403 2.7904653 5.125 5.0625 C5.66382813 5.79597656 6.20265625 6.52945313 6.7578125 7.28515625 C7.16773438 7.85105469 7.57765625 8.41695312 8 9 C7.67 9.66 7.34 10.32 7 11 C5.5 9.625 5.5 9.625 4 8 C4 7.34 4 6.68 4 6 C3.34 6 2.68 6 2 6 C2 5.01 2 4.02 2 3 C1.34 3 0.68 3 0 3 C0 2.01 0 1.02 0 0 Z " fill="#6E6E6E" transform="translate(683,823)"/>
<path d="M0 0 C1.33895632 1.66215268 2.67130142 3.32963607 4 5 C4.5775 5.721875 5.155 6.44375 5.75 7.1875 C7 9 7 9 7 11 C2.65581282 9.55193761 1.82746764 6.61138436 -0.1875 2.6875 C-0.455625 2.130625 -0.72375 1.57375 -1 1 C-0.67 0.67 -0.34 0.34 0 0 Z " fill="#707070" transform="translate(734,698)"/>
<path d="M0 0 C1.53445094 3.06890187 0.54984289 5.70094266 0 9 C-1.65 9.66 -3.3 10.32 -5 11 C-4.35731563 9.35293447 -3.71076198 7.70737825 -3.0625 6.0625 C-2.70285156 5.14597656 -2.34320312 4.22945313 -1.97265625 3.28515625 C-1 1 -1 1 0 0 Z " fill="#707070" transform="translate(758,369)"/>
<path d="M0 0 C0.99 0.33 1.98 0.66 3 1 C-0.96 4.465 -0.96 4.465 -5 8 C-5.66 7.67 -6.32 7.34 -7 7 C-4.69 4.69 -2.38 2.38 0 0 Z " fill="#707070" transform="translate(820,581)"/>
<path d="M0 0 C3.12270126 2.51830747 3.94523098 3.7261549 4.75 7.75 C4.8325 8.8225 4.915 9.895 5 11 C3 10 3 10 2.1484375 7.71484375 C1.89320313 6.79832031 1.63796875 5.88179687 1.375 4.9375 C1.11460937 4.01839844 0.85421875 3.09929688 0.5859375 2.15234375 C0.39257812 1.44207031 0.19921875 0.73179687 0 0 Z " fill="#616161" transform="translate(544,523)"/>
<path d="M0 0 C4.51478398 0.53115106 7.34666857 2.36620292 11 5 C10.34 5.66 9.68 6.32 9 7 C7.4972763 6.02501855 5.99788037 5.04490611 4.5 4.0625 C3.6646875 3.51722656 2.829375 2.97195313 1.96875 2.41015625 C1.3190625 1.94480469 0.669375 1.47945313 0 1 C0 0.67 0 0.34 0 0 Z " fill="#767676" transform="translate(999,413)"/>
<path d="M0 0 C2.95183101 2.95183101 3.08663988 5.95511947 4 10 C0.77686187 7.19275066 -0.64998321 5.31687378 -1 1 C-0.67 0.67 -0.34 0.34 0 0 Z " fill="#797979" transform="translate(730,688)"/>
<path d="M0 0 C0.99 0.33 1.98 0.66 3 1 C4.1875 4.0625 4.1875 4.0625 5 7 C2 6 2 6 0 3 C0 2.01 0 1.02 0 0 Z " fill="#8E8E8E" transform="translate(667,799)"/>
<path d="M0 0 C3.82097239 0.53069061 6.06171403 1.49701566 9 4 C6 5 6 5 3.8125 4.0625 C3.214375 3.711875 2.61625 3.36125 2 3 C2 2.34 2 1.68 2 1 C1.34 0.67 0.68 0.34 0 0 Z " fill="#8A8A8A" transform="translate(752,589)"/>
<path d="M0 0 C0.33 0 0.66 0 1 0 C1 2.64 1 5.28 1 8 C0.67 8 0.34 8 0 8 C0 5.36 0 2.72 0 0 Z " fill="#555555" transform="translate(727,518)"/>
<path d="M0 0 C1 4 1 4 1 4 Z " fill="#4A4A4A" transform="translate(727,546)"/>
<path d="" fill="#404040" transform="translate(0,0)"/>
<path d="" fill="#2A2A2A" transform="translate(0,0)"/>
<path d="" fill="#555555" transform="translate(0,0)"/>
<path d="" fill="#000000" transform="translate(0,0)"/>
<path d="" fill="#000000" transform="translate(0,0)"/>
<path d="" fill="#000000" transform="translate(0,0)"/>
<path d="" fill="#000000" transform="translate(0,0)"/>
<path d="" fill="#000000" transform="translate(0,0)"/>
<path d="" fill="#808080" transform="translate(0,0)"/>
<path d="" fill="#000000" transform="translate(0,0)"/>
<path d="" fill="#000000" transform="translate(0,0)"/>
<path d="" fill="#000000" transform="translate(0,0)"/>
<path d="" fill="#000000" transform="translate(0,0)"/>
<path d="" fill="#000000" transform="translate(0,0)"/>
<path d="" fill="#000000" transform="translate(0,0)"/>
<path d="" fill="#000000" transform="translate(0,0)"/>
<path d="" fill="#000000" transform="translate(0,0)"/>
<path d="" fill="#000000" transform="translate(0,0)"/>
<path d="" fill="#808080" transform="translate(0,0)"/>
<path d="" fill="#808080" transform="translate(0,0)"/>
<path d="" fill="#000000" transform="translate(0,0)"/>
<path d="" fill="#000000" transform="translate(0,0)"/>
<path d="" fill="#808080" transform="translate(0,0)"/>
<path d="" fill="#000000" transform="translate(0,0)"/>
<path d="" fill="#000000" transform="translate(0,0)"/>
<path d="" fill="#000000" transform="translate(0,0)"/>
<path d="" fill="#000000" transform="translate(0,0)"/>
<path d="" fill="#000000" transform="translate(0,0)"/>
<path d="" fill="#000000" transform="translate(0,0)"/>
<path d="" fill="#000000" transform="translate(0,0)"/>
<path d="" fill="#000000" transform="translate(0,0)"/>
<path d="" fill="#000000" transform="translate(0,0)"/>
<path d="" fill="#000000" transform="translate(0,0)"/>
<path d="" fill="#000000" transform="translate(0,0)"/>
<path d="" fill="#808080" transform="translate(0,0)"/>
<path d="" fill="#555555" transform="translate(0,0)"/>
<path d="" fill="#555555" transform="translate(0,0)"/>
<path d="" fill="#000000" transform="translate(0,0)"/>
<path d="" fill="#808080" transform="translate(0,0)"/>
<path d="" fill="#555555" transform="translate(0,0)"/>
<path d="" fill="#555555" transform="translate(0,0)"/>
<path d="" fill="#000000" transform="translate(0,0)"/>
<path d="" fill="#000000" transform="translate(0,0)"/>
<path d="" fill="#808080" transform="translate(0,0)"/>
<path d="" fill="#808080" transform="translate(0,0)"/>
<path d="" fill="#000000" transform="translate(0,0)"/>
<path d="" fill="#000000" transform="translate(0,0)"/>
<path d="" fill="#000000" transform="translate(0,0)"/>
<path d="" fill="#000000" transform="translate(0,0)"/>
<path d="" fill="#000000" transform="translate(0,0)"/>
<path d="" fill="#000000" transform="translate(0,0)"/>
<path d="" fill="#000000" transform="translate(0,0)"/>
<path d="" fill="#000000" transform="translate(0,0)"/>
</svg>
